<mxfile host="www.draw.io" modified="2020-02-05T09:47:46.527Z" agent="Mozilla/5.0 (Windows NT 10.0; Win64; x64) AppleWebKit/537.36 (KHTML, like Gecko) Chrome/79.0.3945.130 Safari/537.36" etag="zB7VmhYviLSJKgOQPUfP" version="12.6.5" type="github">
  <diagram id="3hIZ0l7LkQs8Ex4Kn3ME" name="Page-1">
    <mxGraphModel dx="868" dy="450" grid="1" gridSize="10" guides="1" tooltips="1" connect="1" arrows="1" fold="1" page="1" pageScale="1" pageWidth="827" pageHeight="1169" math="0" shadow="0">
      <root>
        <object label="" VPC="" id="0">
          <mxCell/>
        </object>
        <mxCell id="1" parent="0"/>
        <mxCell id="y-UDLhor-zXW1Z1-q-NE-1" value="AWS Cloud" style="points=[[0,0],[0.25,0],[0.5,0],[0.75,0],[1,0],[1,0.25],[1,0.5],[1,0.75],[1,1],[0.75,1],[0.5,1],[0.25,1],[0,1],[0,0.75],[0,0.5],[0,0.25]];outlineConnect=0;gradientColor=none;html=1;whiteSpace=wrap;fontSize=12;fontStyle=0;shape=mxgraph.aws4.group;grIcon=mxgraph.aws4.group_aws_cloud_alt;strokeColor=#232F3E;fillColor=none;verticalAlign=top;align=left;spacingLeft=30;fontColor=#232F3E;dashed=0;" parent="1" vertex="1">
          <mxGeometry y="40" width="720" height="450" as="geometry"/>
        </mxCell>
        <mxCell id="y-UDLhor-zXW1Z1-q-NE-2" value="Region" style="points=[[0,0],[0.25,0],[0.5,0],[0.75,0],[1,0],[1,0.25],[1,0.5],[1,0.75],[1,1],[0.75,1],[0.5,1],[0.25,1],[0,1],[0,0.75],[0,0.5],[0,0.25]];outlineConnect=0;gradientColor=none;html=1;whiteSpace=wrap;fontSize=12;fontStyle=0;shape=mxgraph.aws4.group;grIcon=mxgraph.aws4.group_region;strokeColor=#147EBA;fillColor=none;verticalAlign=top;align=left;spacingLeft=30;fontColor=#147EBA;dashed=0;" parent="1" vertex="1">
          <mxGeometry x="40" y="80" width="640" height="390" as="geometry"/>
        </mxCell>
        <mxCell id="y-UDLhor-zXW1Z1-q-NE-3" value="Availability Zone" style="fillColor=none;strokeColor=#147EBA;dashed=1;verticalAlign=top;fontStyle=0;fontColor=#147EBA;" parent="1" vertex="1">
          <mxGeometry x="120" y="160" width="200" height="280" as="geometry"/>
        </mxCell>
        <mxCell id="y-UDLhor-zXW1Z1-q-NE-4" value="Availability Zone" style="fillColor=none;strokeColor=#147EBA;dashed=1;verticalAlign=top;fontStyle=0;fontColor=#147EBA;" parent="1" vertex="1">
          <mxGeometry x="400" y="160" width="200" height="280" as="geometry"/>
        </mxCell>
        <mxCell id="y-UDLhor-zXW1Z1-q-NE-7" value="Public subnet" style="points=[[0,0],[0.25,0],[0.5,0],[0.75,0],[1,0],[1,0.25],[1,0.5],[1,0.75],[1,1],[0.75,1],[0.5,1],[0.25,1],[0,1],[0,0.75],[0,0.5],[0,0.25]];outlineConnect=0;gradientColor=none;html=1;whiteSpace=wrap;fontSize=12;fontStyle=0;shape=mxgraph.aws4.group;grIcon=mxgraph.aws4.group_security_group;grStroke=0;strokeColor=#248814;fillColor=#E9F3E6;verticalAlign=top;align=left;spacingLeft=30;fontColor=#248814;dashed=0;" parent="1" vertex="1">
          <mxGeometry x="160" y="200" width="120" height="80" as="geometry"/>
        </mxCell>
        <mxCell id="y-UDLhor-zXW1Z1-q-NE-8" value="Private subnet" style="points=[[0,0],[0.25,0],[0.5,0],[0.75,0],[1,0],[1,0.25],[1,0.5],[1,0.75],[1,1],[0.75,1],[0.5,1],[0.25,1],[0,1],[0,0.75],[0,0.5],[0,0.25]];outlineConnect=0;gradientColor=none;html=1;whiteSpace=wrap;fontSize=12;fontStyle=0;shape=mxgraph.aws4.group;grIcon=mxgraph.aws4.group_security_group;grStroke=0;strokeColor=#147EBA;fillColor=#E6F2F8;verticalAlign=top;align=left;spacingLeft=30;fontColor=#147EBA;dashed=0;" parent="1" vertex="1">
          <mxGeometry x="160" y="320" width="120" height="80" as="geometry"/>
        </mxCell>
        <mxCell id="y-UDLhor-zXW1Z1-q-NE-9" value="Public subnet" style="points=[[0,0],[0.25,0],[0.5,0],[0.75,0],[1,0],[1,0.25],[1,0.5],[1,0.75],[1,1],[0.75,1],[0.5,1],[0.25,1],[0,1],[0,0.75],[0,0.5],[0,0.25]];outlineConnect=0;gradientColor=none;html=1;whiteSpace=wrap;fontSize=12;fontStyle=0;shape=mxgraph.aws4.group;grIcon=mxgraph.aws4.group_security_group;grStroke=0;strokeColor=#248814;fillColor=#E9F3E6;verticalAlign=top;align=left;spacingLeft=30;fontColor=#248814;dashed=0;" parent="1" vertex="1">
          <mxGeometry x="440" y="200" width="120" height="80" as="geometry"/>
        </mxCell>
        <mxCell id="y-UDLhor-zXW1Z1-q-NE-10" value="Private subnet" style="points=[[0,0],[0.25,0],[0.5,0],[0.75,0],[1,0],[1,0.25],[1,0.5],[1,0.75],[1,1],[0.75,1],[0.5,1],[0.25,1],[0,1],[0,0.75],[0,0.5],[0,0.25]];outlineConnect=0;gradientColor=none;html=1;whiteSpace=wrap;fontSize=12;fontStyle=0;shape=mxgraph.aws4.group;grIcon=mxgraph.aws4.group_security_group;grStroke=0;strokeColor=#147EBA;fillColor=#E6F2F8;verticalAlign=top;align=left;spacingLeft=30;fontColor=#147EBA;dashed=0;" parent="1" vertex="1">
          <mxGeometry x="440" y="320" width="120" height="80" as="geometry"/>
        </mxCell>
        <mxCell id="y-UDLhor-zXW1Z1-q-NE-11" value="VPC" style="points=[[0,0],[0.25,0],[0.5,0],[0.75,0],[1,0],[1,0.25],[1,0.5],[1,0.75],[1,1],[0.75,1],[0.5,1],[0.25,1],[0,1],[0,0.75],[0,0.5],[0,0.25]];outlineConnect=0;gradientColor=none;html=1;whiteSpace=wrap;fontSize=12;fontStyle=1;shape=mxgraph.aws4.group;grIcon=mxgraph.aws4.group_vpc;strokeColor=#248814;fillColor=none;verticalAlign=top;align=left;spacingLeft=30;fontColor=#000000;dashed=0;" parent="1" vertex="1">
          <mxGeometry x="80" y="120" width="560" height="340" as="geometry"/>
        </mxCell>
        <mxCell id="DVPvRmJT7JCMKphsr5lk-1" value="" style="outlineConnect=0;fontColor=#232F3E;gradientColor=none;fillColor=#232F3E;strokeColor=none;dashed=0;verticalLabelPosition=bottom;verticalAlign=top;align=center;html=1;fontSize=12;fontStyle=0;aspect=fixed;pointerEvents=1;shape=mxgraph.aws4.internet_alt2;" vertex="1" parent="1">
          <mxGeometry x="336" y="90" width="48" height="48" as="geometry"/>
        </mxCell>
        <mxCell id="DVPvRmJT7JCMKphsr5lk-2" value="" style="outlineConnect=0;dashed=0;verticalLabelPosition=bottom;verticalAlign=top;align=center;html=1;fontSize=12;fontStyle=0;aspect=fixed;pointerEvents=1;shape=mxgraph.aws4.customer_gateway;fillColor=#ffffff;" vertex="1" parent="1">
          <mxGeometry x="340" y="290" width="40" height="40" as="geometry"/>
        </mxCell>
        <mxCell id="DVPvRmJT7JCMKphsr5lk-3" value="" style="edgeStyle=orthogonalEdgeStyle;html=1;endArrow=block;elbow=vertical;startArrow=block;startFill=1;endFill=1;strokeColor=#545B64;rounded=0;" edge="1" parent="1" target="DVPvRmJT7JCMKphsr5lk-2">
          <mxGeometry width="100" relative="1" as="geometry">
            <mxPoint x="280" y="260" as="sourcePoint"/>
            <mxPoint x="350" y="260" as="targetPoint"/>
            <Array as="points">
              <mxPoint x="350" y="260"/>
            </Array>
          </mxGeometry>
        </mxCell>
        <mxCell id="DVPvRmJT7JCMKphsr5lk-4" value="" style="edgeStyle=orthogonalEdgeStyle;html=1;endArrow=block;elbow=vertical;startArrow=block;startFill=1;endFill=1;strokeColor=#545B64;rounded=0;" edge="1" parent="1" source="DVPvRmJT7JCMKphsr5lk-2">
          <mxGeometry width="100" relative="1" as="geometry">
            <mxPoint x="370" y="260" as="sourcePoint"/>
            <mxPoint x="440" y="260" as="targetPoint"/>
            <Array as="points">
              <mxPoint x="370" y="260"/>
            </Array>
          </mxGeometry>
        </mxCell>
        <mxCell id="DVPvRmJT7JCMKphsr5lk-6" value="" style="edgeStyle=orthogonalEdgeStyle;html=1;endArrow=block;elbow=vertical;startArrow=block;startFill=1;endFill=1;strokeColor=#545B64;rounded=0;" edge="1" parent="1" target="DVPvRmJT7JCMKphsr5lk-2">
          <mxGeometry width="100" relative="1" as="geometry">
            <mxPoint x="280" y="359.5" as="sourcePoint"/>
            <mxPoint x="370" y="360" as="targetPoint"/>
            <Array as="points">
              <mxPoint x="350" y="360"/>
            </Array>
          </mxGeometry>
        </mxCell>
        <mxCell id="DVPvRmJT7JCMKphsr5lk-7" value="" style="edgeStyle=orthogonalEdgeStyle;html=1;endArrow=block;elbow=vertical;startArrow=block;startFill=1;endFill=1;strokeColor=#545B64;rounded=0;" edge="1" parent="1" source="DVPvRmJT7JCMKphsr5lk-2">
          <mxGeometry width="100" relative="1" as="geometry">
            <mxPoint x="340" y="359.5" as="sourcePoint"/>
            <mxPoint x="440" y="359.5" as="targetPoint"/>
            <Array as="points">
              <mxPoint x="370" y="360"/>
            </Array>
          </mxGeometry>
        </mxCell>
        <mxCell id="DVPvRmJT7JCMKphsr5lk-8" value="" style="edgeStyle=orthogonalEdgeStyle;html=1;endArrow=block;elbow=vertical;startArrow=block;startFill=1;endFill=1;strokeColor=#545B64;rounded=0;" edge="1" parent="1" target="y-UDLhor-zXW1Z1-q-NE-11">
          <mxGeometry width="100" relative="1" as="geometry">
            <mxPoint x="360" y="290" as="sourcePoint"/>
            <mxPoint x="460" y="290" as="targetPoint"/>
            <Array as="points">
              <mxPoint x="360" y="140"/>
              <mxPoint x="360" y="140"/>
            </Array>
          </mxGeometry>
        </mxCell>
        <mxCell id="DVPvRmJT7JCMKphsr5lk-9" value="US East (Ohio)" style="text;html=1;resizable=0;autosize=1;align=center;verticalAlign=middle;points=[];fillColor=none;strokeColor=none;rounded=0;shadow=1;fontColor=#007FFF;fontStyle=1;fontSize=11;" vertex="1" parent="1">
          <mxGeometry x="120" y="80" width="90" height="20" as="geometry"/>
        </mxCell>
        <mxCell id="DVPvRmJT7JCMKphsr5lk-10" value="VPC_DEV" style="text;html=1;resizable=0;autosize=1;align=center;verticalAlign=middle;points=[];fillColor=none;strokeColor=none;rounded=0;shadow=1;fontSize=11;fontColor=#333333;fontStyle=1" vertex="1" parent="1">
          <mxGeometry x="140" y="120" width="70" height="20" as="geometry"/>
        </mxCell>
        <mxCell id="DVPvRmJT7JCMKphsr5lk-11" value="us-east-2a" style="text;html=1;resizable=0;autosize=1;align=center;verticalAlign=middle;points=[];fillColor=none;strokeColor=none;rounded=0;shadow=1;fontSize=11;fontColor=#333333;" vertex="1" parent="1">
          <mxGeometry x="120" y="180" width="70" height="20" as="geometry"/>
        </mxCell>
        <mxCell id="DVPvRmJT7JCMKphsr5lk-12" value="us-east-2b" style="text;html=1;resizable=0;autosize=1;align=center;verticalAlign=middle;points=[];fillColor=none;strokeColor=none;rounded=0;shadow=1;fontSize=11;fontColor=#333333;" vertex="1" parent="1">
          <mxGeometry x="400" y="180" width="70" height="20" as="geometry"/>
        </mxCell>
        <mxCell id="DVPvRmJT7JCMKphsr5lk-14" value="" style="edgeStyle=orthogonalEdgeStyle;html=1;endArrow=block;elbow=vertical;startArrow=block;startFill=1;endFill=1;strokeColor=#545B64;rounded=0;fontSize=11;fontColor=#333333;" edge="1" parent="1" target="y-UDLhor-zXW1Z1-q-NE-11">
          <mxGeometry width="100" relative="1" as="geometry">
            <mxPoint x="360" y="290" as="sourcePoint"/>
            <mxPoint x="460" y="290" as="targetPoint"/>
            <Array as="points">
              <mxPoint x="380" y="380"/>
              <mxPoint x="380" y="380"/>
            </Array>
          </mxGeometry>
        </mxCell>
        <mxCell id="DVPvRmJT7JCMKphsr5lk-15" value="" style="edgeStyle=orthogonalEdgeStyle;html=1;endArrow=block;elbow=vertical;startArrow=block;startFill=1;endFill=1;strokeColor=#545B64;rounded=0;fontSize=11;fontColor=#333333;" edge="1" parent="1" source="DVPvRmJT7JCMKphsr5lk-1">
          <mxGeometry width="100" relative="1" as="geometry">
            <mxPoint x="260" y="290" as="sourcePoint"/>
            <mxPoint x="360" y="290" as="targetPoint"/>
            <Array as="points">
              <mxPoint x="360" y="290"/>
            </Array>
          </mxGeometry>
        </mxCell>
      </root>
    </mxGraphModel>
  </diagram>
</mxfile>
